<mxfile host="Electron" agent="Mozilla/5.0 (Windows NT 10.0; Win64; x64) AppleWebKit/537.36 (KHTML, like Gecko) draw.io/28.2.8 Chrome/140.0.7339.240 Electron/38.4.0 Safari/537.36" version="28.2.8">
  <diagram name="Página-1" id="B3cP9hjigfqpjvAuL1U3">
    <mxGraphModel dx="1426" dy="841" grid="1" gridSize="10" guides="1" tooltips="1" connect="1" arrows="1" fold="1" page="1" pageScale="1" pageWidth="827" pageHeight="1169" math="0" shadow="0">
      <root>
        <mxCell id="0" />
        <mxCell id="1" parent="0" />
        <mxCell id="UWaW0oETCWNJXXpvveFS-2" value="&lt;font style=&quot;font-size: 30px;&quot;&gt;Gerenciador de Redes Sociais&lt;/font&gt;" style="text;html=1;whiteSpace=wrap;strokeColor=none;fillColor=none;align=center;verticalAlign=middle;rounded=0;" vertex="1" parent="1">
          <mxGeometry x="50" y="50" width="250" height="90" as="geometry" />
        </mxCell>
        <mxCell id="UWaW0oETCWNJXXpvveFS-30" value="" style="group" vertex="1" connectable="0" parent="1">
          <mxGeometry x="390" y="130" width="414" height="470" as="geometry" />
        </mxCell>
        <mxCell id="UWaW0oETCWNJXXpvveFS-6" style="edgeStyle=orthogonalEdgeStyle;rounded=0;orthogonalLoop=1;jettySize=auto;html=1;entryX=0.5;entryY=0;entryDx=0;entryDy=0;" edge="1" parent="UWaW0oETCWNJXXpvveFS-30" source="UWaW0oETCWNJXXpvveFS-1" target="UWaW0oETCWNJXXpvveFS-5">
          <mxGeometry relative="1" as="geometry" />
        </mxCell>
        <mxCell id="UWaW0oETCWNJXXpvveFS-1" value="Usuário acessa o sistema" style="rounded=0;whiteSpace=wrap;html=1;" vertex="1" parent="UWaW0oETCWNJXXpvveFS-30">
          <mxGeometry x="161.08363636363637" width="90.32727272727271" height="34.18181818181818" as="geometry" />
        </mxCell>
        <mxCell id="UWaW0oETCWNJXXpvveFS-10" style="edgeStyle=orthogonalEdgeStyle;rounded=0;orthogonalLoop=1;jettySize=auto;html=1;entryX=0.5;entryY=0;entryDx=0;entryDy=0;" edge="1" parent="UWaW0oETCWNJXXpvveFS-30" source="UWaW0oETCWNJXXpvveFS-5" target="UWaW0oETCWNJXXpvveFS-8">
          <mxGeometry relative="1" as="geometry" />
        </mxCell>
        <mxCell id="UWaW0oETCWNJXXpvveFS-12" value="Sim" style="edgeLabel;html=1;align=center;verticalAlign=middle;resizable=0;points=[];" vertex="1" connectable="0" parent="UWaW0oETCWNJXXpvveFS-10">
          <mxGeometry x="-0.1859" y="1" relative="1" as="geometry">
            <mxPoint as="offset" />
          </mxGeometry>
        </mxCell>
        <mxCell id="UWaW0oETCWNJXXpvveFS-11" style="edgeStyle=orthogonalEdgeStyle;rounded=0;orthogonalLoop=1;jettySize=auto;html=1;entryX=0;entryY=0.5;entryDx=0;entryDy=0;" edge="1" parent="UWaW0oETCWNJXXpvveFS-30" source="UWaW0oETCWNJXXpvveFS-5" target="UWaW0oETCWNJXXpvveFS-9">
          <mxGeometry relative="1" as="geometry" />
        </mxCell>
        <mxCell id="UWaW0oETCWNJXXpvveFS-13" value="Não" style="edgeLabel;html=1;align=center;verticalAlign=middle;resizable=0;points=[];" vertex="1" connectable="0" parent="UWaW0oETCWNJXXpvveFS-11">
          <mxGeometry x="-0.2137" y="1" relative="1" as="geometry">
            <mxPoint as="offset" />
          </mxGeometry>
        </mxCell>
        <mxCell id="UWaW0oETCWNJXXpvveFS-5" value="Tem conta?" style="rhombus;whiteSpace=wrap;html=1;" vertex="1" parent="UWaW0oETCWNJXXpvveFS-30">
          <mxGeometry x="176.1381818181818" y="59.81818181818182" width="60.21818181818182" height="68.36363636363636" as="geometry" />
        </mxCell>
        <mxCell id="UWaW0oETCWNJXXpvveFS-18" style="edgeStyle=orthogonalEdgeStyle;rounded=0;orthogonalLoop=1;jettySize=auto;html=1;entryX=0.5;entryY=0;entryDx=0;entryDy=0;" edge="1" parent="UWaW0oETCWNJXXpvveFS-30" source="UWaW0oETCWNJXXpvveFS-8" target="UWaW0oETCWNJXXpvveFS-17">
          <mxGeometry relative="1" as="geometry" />
        </mxCell>
        <mxCell id="UWaW0oETCWNJXXpvveFS-8" value="Login" style="rounded=0;whiteSpace=wrap;html=1;" vertex="1" parent="UWaW0oETCWNJXXpvveFS-30">
          <mxGeometry x="161.08363636363637" y="179.4545454545455" width="90.32727272727271" height="34.18181818181818" as="geometry" />
        </mxCell>
        <mxCell id="UWaW0oETCWNJXXpvveFS-14" style="edgeStyle=orthogonalEdgeStyle;rounded=0;orthogonalLoop=1;jettySize=auto;html=1;entryX=1;entryY=0.5;entryDx=0;entryDy=0;exitX=0.5;exitY=1;exitDx=0;exitDy=0;" edge="1" parent="UWaW0oETCWNJXXpvveFS-30" source="UWaW0oETCWNJXXpvveFS-9" target="UWaW0oETCWNJXXpvveFS-8">
          <mxGeometry relative="1" as="geometry" />
        </mxCell>
        <mxCell id="UWaW0oETCWNJXXpvveFS-9" value="Cadastro" style="rounded=0;whiteSpace=wrap;html=1;" vertex="1" parent="UWaW0oETCWNJXXpvveFS-30">
          <mxGeometry x="293.56363636363636" y="76.9090909090909" width="90.32727272727271" height="34.18181818181818" as="geometry" />
        </mxCell>
        <mxCell id="UWaW0oETCWNJXXpvveFS-22" style="edgeStyle=orthogonalEdgeStyle;rounded=0;orthogonalLoop=1;jettySize=auto;html=1;entryX=0.5;entryY=0;entryDx=0;entryDy=0;" edge="1" parent="UWaW0oETCWNJXXpvveFS-30" source="UWaW0oETCWNJXXpvveFS-17" target="UWaW0oETCWNJXXpvveFS-21">
          <mxGeometry relative="1" as="geometry" />
        </mxCell>
        <mxCell id="UWaW0oETCWNJXXpvveFS-17" value="Página inicial" style="rounded=0;whiteSpace=wrap;html=1;" vertex="1" parent="UWaW0oETCWNJXXpvveFS-30">
          <mxGeometry x="161.08363636363637" y="264.90909090909093" width="90.32727272727271" height="34.18181818181818" as="geometry" />
        </mxCell>
        <mxCell id="UWaW0oETCWNJXXpvveFS-24" style="edgeStyle=orthogonalEdgeStyle;rounded=0;orthogonalLoop=1;jettySize=auto;html=1;entryX=0;entryY=0.5;entryDx=0;entryDy=0;" edge="1" parent="UWaW0oETCWNJXXpvveFS-30" source="UWaW0oETCWNJXXpvveFS-21" target="UWaW0oETCWNJXXpvveFS-23">
          <mxGeometry relative="1" as="geometry" />
        </mxCell>
        <mxCell id="UWaW0oETCWNJXXpvveFS-27" style="edgeStyle=orthogonalEdgeStyle;rounded=0;orthogonalLoop=1;jettySize=auto;html=1;entryX=1;entryY=0.5;entryDx=0;entryDy=0;" edge="1" parent="UWaW0oETCWNJXXpvveFS-30" source="UWaW0oETCWNJXXpvveFS-21" target="UWaW0oETCWNJXXpvveFS-26">
          <mxGeometry relative="1" as="geometry" />
        </mxCell>
        <mxCell id="UWaW0oETCWNJXXpvveFS-29" style="edgeStyle=orthogonalEdgeStyle;rounded=0;orthogonalLoop=1;jettySize=auto;html=1;entryX=0.5;entryY=0;entryDx=0;entryDy=0;" edge="1" parent="UWaW0oETCWNJXXpvveFS-30" source="UWaW0oETCWNJXXpvveFS-21" target="UWaW0oETCWNJXXpvveFS-28">
          <mxGeometry relative="1" as="geometry" />
        </mxCell>
        <mxCell id="UWaW0oETCWNJXXpvveFS-21" value="" style="rhombus;whiteSpace=wrap;html=1;" vertex="1" parent="UWaW0oETCWNJXXpvveFS-30">
          <mxGeometry x="176.1381818181818" y="333.27272727272725" width="60.21818181818182" height="68.36363636363636" as="geometry" />
        </mxCell>
        <mxCell id="UWaW0oETCWNJXXpvveFS-23" value="Planner semanal" style="rounded=0;whiteSpace=wrap;html=1;" vertex="1" parent="UWaW0oETCWNJXXpvveFS-30">
          <mxGeometry x="293.56363636363636" y="350.3636363636364" width="120.43636363636364" height="34.18181818181818" as="geometry" />
        </mxCell>
        <mxCell id="UWaW0oETCWNJXXpvveFS-26" value="Agendamento de publicações" style="rounded=0;whiteSpace=wrap;html=1;" vertex="1" parent="UWaW0oETCWNJXXpvveFS-30">
          <mxGeometry y="350.3636363636364" width="120.43636363636364" height="34.18181818181818" as="geometry" />
        </mxCell>
        <mxCell id="UWaW0oETCWNJXXpvveFS-28" value="Visualiza relatórios" style="rounded=0;whiteSpace=wrap;html=1;" vertex="1" parent="UWaW0oETCWNJXXpvveFS-30">
          <mxGeometry x="146.0290909090909" y="435.81818181818187" width="120.43636363636364" height="34.18181818181818" as="geometry" />
        </mxCell>
        <mxCell id="UWaW0oETCWNJXXpvveFS-34" value="Usuário" style="swimlane;fontStyle=0;childLayout=stackLayout;horizontal=1;startSize=30;horizontalStack=0;resizeParent=1;resizeParentMax=0;resizeLast=0;collapsible=1;marginBottom=0;whiteSpace=wrap;html=1;" vertex="1" parent="1">
          <mxGeometry x="20" y="150" width="140" height="240" as="geometry">
            <mxRectangle x="110" y="170" width="80" height="30" as="alternateBounds" />
          </mxGeometry>
        </mxCell>
        <mxCell id="UWaW0oETCWNJXXpvveFS-35" value="Id (PK)" style="text;strokeColor=none;fillColor=none;align=left;verticalAlign=middle;spacingLeft=4;spacingRight=4;overflow=hidden;points=[[0,0.5],[1,0.5]];portConstraint=eastwest;rotatable=0;whiteSpace=wrap;html=1;" vertex="1" parent="UWaW0oETCWNJXXpvveFS-34">
          <mxGeometry y="30" width="140" height="30" as="geometry" />
        </mxCell>
        <mxCell id="UWaW0oETCWNJXXpvveFS-36" value="Nome" style="text;strokeColor=none;fillColor=none;align=left;verticalAlign=middle;spacingLeft=4;spacingRight=4;overflow=hidden;points=[[0,0.5],[1,0.5]];portConstraint=eastwest;rotatable=0;whiteSpace=wrap;html=1;" vertex="1" parent="UWaW0oETCWNJXXpvveFS-34">
          <mxGeometry y="60" width="140" height="30" as="geometry" />
        </mxCell>
        <mxCell id="UWaW0oETCWNJXXpvveFS-42" value="Email" style="text;strokeColor=none;fillColor=none;align=left;verticalAlign=middle;spacingLeft=4;spacingRight=4;overflow=hidden;points=[[0,0.5],[1,0.5]];portConstraint=eastwest;rotatable=0;whiteSpace=wrap;html=1;" vertex="1" parent="UWaW0oETCWNJXXpvveFS-34">
          <mxGeometry y="90" width="140" height="30" as="geometry" />
        </mxCell>
        <mxCell id="UWaW0oETCWNJXXpvveFS-37" value="Usuário" style="text;strokeColor=none;fillColor=none;align=left;verticalAlign=middle;spacingLeft=4;spacingRight=4;overflow=hidden;points=[[0,0.5],[1,0.5]];portConstraint=eastwest;rotatable=0;whiteSpace=wrap;html=1;" vertex="1" parent="UWaW0oETCWNJXXpvveFS-34">
          <mxGeometry y="120" width="140" height="30" as="geometry" />
        </mxCell>
        <mxCell id="UWaW0oETCWNJXXpvveFS-40" value="Senha" style="text;strokeColor=none;fillColor=none;align=left;verticalAlign=middle;spacingLeft=4;spacingRight=4;overflow=hidden;points=[[0,0.5],[1,0.5]];portConstraint=eastwest;rotatable=0;whiteSpace=wrap;html=1;" vertex="1" parent="UWaW0oETCWNJXXpvveFS-34">
          <mxGeometry y="150" width="140" height="30" as="geometry" />
        </mxCell>
        <mxCell id="UWaW0oETCWNJXXpvveFS-67" value="Status?" style="text;strokeColor=none;fillColor=none;align=left;verticalAlign=middle;spacingLeft=4;spacingRight=4;overflow=hidden;points=[[0,0.5],[1,0.5]];portConstraint=eastwest;rotatable=0;whiteSpace=wrap;html=1;" vertex="1" parent="UWaW0oETCWNJXXpvveFS-34">
          <mxGeometry y="180" width="140" height="30" as="geometry" />
        </mxCell>
        <mxCell id="UWaW0oETCWNJXXpvveFS-41" value="Clientes (FK)" style="text;strokeColor=none;fillColor=none;align=left;verticalAlign=middle;spacingLeft=4;spacingRight=4;overflow=hidden;points=[[0,0.5],[1,0.5]];portConstraint=eastwest;rotatable=0;whiteSpace=wrap;html=1;" vertex="1" parent="UWaW0oETCWNJXXpvveFS-34">
          <mxGeometry y="210" width="140" height="30" as="geometry" />
        </mxCell>
        <mxCell id="UWaW0oETCWNJXXpvveFS-43" value="Cliente" style="swimlane;fontStyle=0;childLayout=stackLayout;horizontal=1;startSize=30;horizontalStack=0;resizeParent=1;resizeParentMax=0;resizeLast=0;collapsible=1;marginBottom=0;whiteSpace=wrap;html=1;" vertex="1" parent="1">
          <mxGeometry x="230" y="150" width="140" height="240" as="geometry">
            <mxRectangle x="110" y="170" width="80" height="30" as="alternateBounds" />
          </mxGeometry>
        </mxCell>
        <mxCell id="UWaW0oETCWNJXXpvveFS-44" value="Id (PK)" style="text;strokeColor=none;fillColor=none;align=left;verticalAlign=middle;spacingLeft=4;spacingRight=4;overflow=hidden;points=[[0,0.5],[1,0.5]];portConstraint=eastwest;rotatable=0;whiteSpace=wrap;html=1;" vertex="1" parent="UWaW0oETCWNJXXpvveFS-43">
          <mxGeometry y="30" width="140" height="30" as="geometry" />
        </mxCell>
        <mxCell id="UWaW0oETCWNJXXpvveFS-45" value="Nome" style="text;strokeColor=none;fillColor=none;align=left;verticalAlign=middle;spacingLeft=4;spacingRight=4;overflow=hidden;points=[[0,0.5],[1,0.5]];portConstraint=eastwest;rotatable=0;whiteSpace=wrap;html=1;" vertex="1" parent="UWaW0oETCWNJXXpvveFS-43">
          <mxGeometry y="60" width="140" height="30" as="geometry" />
        </mxCell>
        <mxCell id="UWaW0oETCWNJXXpvveFS-46" value="Email" style="text;strokeColor=none;fillColor=none;align=left;verticalAlign=middle;spacingLeft=4;spacingRight=4;overflow=hidden;points=[[0,0.5],[1,0.5]];portConstraint=eastwest;rotatable=0;whiteSpace=wrap;html=1;" vertex="1" parent="UWaW0oETCWNJXXpvveFS-43">
          <mxGeometry y="90" width="140" height="30" as="geometry" />
        </mxCell>
        <mxCell id="UWaW0oETCWNJXXpvveFS-47" value="Usuário" style="text;strokeColor=none;fillColor=none;align=left;verticalAlign=middle;spacingLeft=4;spacingRight=4;overflow=hidden;points=[[0,0.5],[1,0.5]];portConstraint=eastwest;rotatable=0;whiteSpace=wrap;html=1;" vertex="1" parent="UWaW0oETCWNJXXpvveFS-43">
          <mxGeometry y="120" width="140" height="30" as="geometry" />
        </mxCell>
        <mxCell id="UWaW0oETCWNJXXpvveFS-48" value="Senha" style="text;strokeColor=none;fillColor=none;align=left;verticalAlign=middle;spacingLeft=4;spacingRight=4;overflow=hidden;points=[[0,0.5],[1,0.5]];portConstraint=eastwest;rotatable=0;whiteSpace=wrap;html=1;" vertex="1" parent="UWaW0oETCWNJXXpvveFS-43">
          <mxGeometry y="150" width="140" height="30" as="geometry" />
        </mxCell>
        <mxCell id="UWaW0oETCWNJXXpvveFS-68" value="Status?" style="text;strokeColor=none;fillColor=none;align=left;verticalAlign=middle;spacingLeft=4;spacingRight=4;overflow=hidden;points=[[0,0.5],[1,0.5]];portConstraint=eastwest;rotatable=0;whiteSpace=wrap;html=1;" vertex="1" parent="UWaW0oETCWNJXXpvveFS-43">
          <mxGeometry y="180" width="140" height="30" as="geometry" />
        </mxCell>
        <mxCell id="UWaW0oETCWNJXXpvveFS-49" value="Usuário (FK)" style="text;strokeColor=none;fillColor=none;align=left;verticalAlign=middle;spacingLeft=4;spacingRight=4;overflow=hidden;points=[[0,0.5],[1,0.5]];portConstraint=eastwest;rotatable=0;whiteSpace=wrap;html=1;" vertex="1" parent="UWaW0oETCWNJXXpvveFS-43">
          <mxGeometry y="210" width="140" height="30" as="geometry" />
        </mxCell>
        <mxCell id="UWaW0oETCWNJXXpvveFS-50" style="edgeStyle=orthogonalEdgeStyle;rounded=0;orthogonalLoop=1;jettySize=auto;html=1;entryX=0;entryY=0.5;entryDx=0;entryDy=0;" edge="1" parent="1" source="UWaW0oETCWNJXXpvveFS-42" target="UWaW0oETCWNJXXpvveFS-46">
          <mxGeometry relative="1" as="geometry" />
        </mxCell>
        <mxCell id="UWaW0oETCWNJXXpvveFS-58" value="Postagem" style="swimlane;fontStyle=0;childLayout=stackLayout;horizontal=1;startSize=30;horizontalStack=0;resizeParent=1;resizeParentMax=0;resizeLast=0;collapsible=1;marginBottom=0;whiteSpace=wrap;html=1;" vertex="1" parent="1">
          <mxGeometry x="120" y="430" width="140" height="240" as="geometry">
            <mxRectangle x="110" y="170" width="80" height="30" as="alternateBounds" />
          </mxGeometry>
        </mxCell>
        <mxCell id="UWaW0oETCWNJXXpvveFS-59" value="Id (PK)" style="text;strokeColor=none;fillColor=none;align=left;verticalAlign=middle;spacingLeft=4;spacingRight=4;overflow=hidden;points=[[0,0.5],[1,0.5]];portConstraint=eastwest;rotatable=0;whiteSpace=wrap;html=1;" vertex="1" parent="UWaW0oETCWNJXXpvveFS-58">
          <mxGeometry y="30" width="140" height="30" as="geometry" />
        </mxCell>
        <mxCell id="UWaW0oETCWNJXXpvveFS-60" value="Imagem" style="text;strokeColor=none;fillColor=none;align=left;verticalAlign=middle;spacingLeft=4;spacingRight=4;overflow=hidden;points=[[0,0.5],[1,0.5]];portConstraint=eastwest;rotatable=0;whiteSpace=wrap;html=1;" vertex="1" parent="UWaW0oETCWNJXXpvveFS-58">
          <mxGeometry y="60" width="140" height="30" as="geometry" />
        </mxCell>
        <mxCell id="UWaW0oETCWNJXXpvveFS-61" value="Legenda" style="text;strokeColor=none;fillColor=none;align=left;verticalAlign=middle;spacingLeft=4;spacingRight=4;overflow=hidden;points=[[0,0.5],[1,0.5]];portConstraint=eastwest;rotatable=0;whiteSpace=wrap;html=1;" vertex="1" parent="UWaW0oETCWNJXXpvveFS-58">
          <mxGeometry y="90" width="140" height="30" as="geometry" />
        </mxCell>
        <mxCell id="UWaW0oETCWNJXXpvveFS-62" value="Localização" style="text;strokeColor=none;fillColor=none;align=left;verticalAlign=middle;spacingLeft=4;spacingRight=4;overflow=hidden;points=[[0,0.5],[1,0.5]];portConstraint=eastwest;rotatable=0;whiteSpace=wrap;html=1;" vertex="1" parent="UWaW0oETCWNJXXpvveFS-58">
          <mxGeometry y="120" width="140" height="30" as="geometry" />
        </mxCell>
        <mxCell id="UWaW0oETCWNJXXpvveFS-66" value="Formato" style="text;strokeColor=none;fillColor=none;align=left;verticalAlign=middle;spacingLeft=4;spacingRight=4;overflow=hidden;points=[[0,0.5],[1,0.5]];portConstraint=eastwest;rotatable=0;whiteSpace=wrap;html=1;" vertex="1" parent="UWaW0oETCWNJXXpvveFS-58">
          <mxGeometry y="150" width="140" height="30" as="geometry" />
        </mxCell>
        <mxCell id="UWaW0oETCWNJXXpvveFS-63" value="Agendado?" style="text;strokeColor=none;fillColor=none;align=left;verticalAlign=middle;spacingLeft=4;spacingRight=4;overflow=hidden;points=[[0,0.5],[1,0.5]];portConstraint=eastwest;rotatable=0;whiteSpace=wrap;html=1;" vertex="1" parent="UWaW0oETCWNJXXpvveFS-58">
          <mxGeometry y="180" width="140" height="30" as="geometry" />
        </mxCell>
        <mxCell id="UWaW0oETCWNJXXpvveFS-64" value="Cliente (FK)" style="text;strokeColor=none;fillColor=none;align=left;verticalAlign=middle;spacingLeft=4;spacingRight=4;overflow=hidden;points=[[0,0.5],[1,0.5]];portConstraint=eastwest;rotatable=0;whiteSpace=wrap;html=1;" vertex="1" parent="UWaW0oETCWNJXXpvveFS-58">
          <mxGeometry y="210" width="140" height="30" as="geometry" />
        </mxCell>
        <mxCell id="UWaW0oETCWNJXXpvveFS-65" style="edgeStyle=orthogonalEdgeStyle;rounded=0;orthogonalLoop=1;jettySize=auto;html=1;entryX=1.011;entryY=0.793;entryDx=0;entryDy=0;entryPerimeter=0;" edge="1" parent="1" source="UWaW0oETCWNJXXpvveFS-43" target="UWaW0oETCWNJXXpvveFS-61">
          <mxGeometry relative="1" as="geometry">
            <Array as="points">
              <mxPoint x="320" y="514" />
            </Array>
          </mxGeometry>
        </mxCell>
      </root>
    </mxGraphModel>
  </diagram>
</mxfile>
